<svg xmlns="http://www.w3.org/2000/svg" width="48" height="48" fill="none" viewBox="0 0 48 48"><circle cx="24" cy="24" r="23" stroke="#005DE9" stroke-width="2"/><g clip-path="url(#a)"><path stroke="#005DE9" stroke-miterlimit="10" stroke-width="2" d="M27.75 20.25a7.5 7.5 0 1 1-7.5 7.5"/><path stroke="#005DE9" stroke-miterlimit="10" stroke-width="2" d="M20.25 27.75a7.5 7.5 0 1 0 0-15 7.5 7.5 0 0 0 0 15Z"/><path fill="#005DE9" fill-rule="evenodd" d="M29.11 24.326c.2-.434.369-.885.504-1.35.518.18 1.054.47 1.466.955.44.517.67 1.175.67 1.944 0 .83-.268 1.523-.764 2.05-.474.503-1.085.78-1.654.939-.684.191-1.442.246-2.082.26v.252H30v2h-2.75v1.25h-2v-1.25h-.5v-2h.5v-.754a9.789 9.789 0 0 0 1.915-1.498c.561-.01 1.132-.047 1.628-.186.369-.104.602-.24.737-.384.113-.12.22-.308.22-.678 0-.35-.095-.534-.194-.65-.113-.133-.307-.264-.624-.37l.178-.53Z" clip-rule="evenodd"/><path stroke="#005DE9" stroke-width="2" d="M18.75 15.375v9.75m0-9c1.5 0 4.5-.15 4.5 2.25s-3 2.25-4.5 2.25m-1.5 2.25h5.25"/></g><defs><clipPath id="a"><path fill="#fff" d="M12 12h24v24H12z"/></clipPath></defs></svg>